<?xml version="1.0" encoding="UTF-8" standalone="no"?>
<!-- Created with Inkscape (http://www.inkscape.org/) -->

<svg
   xmlns:dc="http://purl.org/dc/elements/1.1/"
   xmlns:cc="http://creativecommons.org/ns#"
   xmlns:rdf="http://www.w3.org/1999/02/22-rdf-syntax-ns#"
   xmlns:svg="http://www.w3.org/2000/svg"
   xmlns="http://www.w3.org/2000/svg"
   xmlns:sodipodi="http://sodipodi.sourceforge.net/DTD/sodipodi-0.dtd"
   xmlns:inkscape="http://www.inkscape.org/namespaces/inkscape"
   width="210mm"
   height="297mm"
   viewBox="0 0 210 297"
   version="1.1"
   id="svg8"
   inkscape:version="0.92.2 (5c3e80d, 2017-08-06)"
   sodipodi:docname="pasges.svg">
  <defs
     id="defs2" />
  <sodipodi:namedview
     id="base"
     pagecolor="#ffffff"
     bordercolor="#666666"
     borderopacity="1.0"
     inkscape:pageopacity="0.0"
     inkscape:pageshadow="2"
     inkscape:zoom="0.5916495"
     inkscape:cx="346.09905"
     inkscape:cy="508.60322"
     inkscape:document-units="mm"
     inkscape:current-layer="layer1"
     showgrid="false"
     inkscape:window-width="1167"
     inkscape:window-height="782"
     inkscape:window-x="405"
     inkscape:window-y="564"
     inkscape:window-maximized="0" />
  <metadata
     id="metadata5">
    <rdf:RDF>
      <cc:Work
         rdf:about="">
        <dc:format>image/svg+xml</dc:format>
        <dc:type
           rdf:resource="http://purl.org/dc/dcmitype/StillImage" />
        <dc:title></dc:title>
      </cc:Work>
    </rdf:RDF>
  </metadata>
  <g
     inkscape:label="Ebene 1"
     inkscape:groupmode="layer"
     id="layer1">
    <text
       xml:space="preserve"
       style="font-style:normal;font-variant:normal;font-weight:bold;font-stretch:normal;font-size:14.11111069px;line-height:1.25;font-family:sans-serif;-inkscape-font-specification:'sans-serif Bold';letter-spacing:0px;word-spacing:0px;fill:#000000;fill-opacity:1;stroke:none;stroke-width:0.26458332;"
       x="94.358368"
       y="129.30147"
       id="text828"><tspan
         sodipodi:role="line"
         id="tspan826"
         x="94.358368"
         y="142.17546"
         style="stroke-width:0.26458332;-inkscape-font-specification:'sans-serif Bold';font-family:sans-serif;font-weight:bold;font-style:normal;font-stretch:normal;font-variant:normal;" /></text>
    <g
       aria-label="HOME
"
       style="font-style:normal;font-variant:normal;font-weight:bold;font-stretch:normal;font-size:14.11111069px;line-height:1.25;font-family:sans-serif;-inkscape-font-specification:'sans-serif Bold';letter-spacing:0px;word-spacing:0px;fill:#000000;fill-opacity:1;stroke:none;stroke-width:0.26458332"
       id="text832">
      <path
         d="M 43.600051,80.109909 H 40.954218 V 75.589944 H 37.04748 v 4.519965 H 34.401646 V 69.850415 h 2.645834 v 3.755154 h 3.906738 v -3.755154 h 2.645833 z"
         style="stroke-width:0.26458332"
         id="path860" />
      <path
         d="m 56.20221,74.983607 q 0,2.452908 -1.405599,3.899848 -1.405599,1.44005 -3.886067,1.44005 -2.473579,0 -3.879178,-1.44005 -1.405599,-1.44694 -1.405599,-3.899848 0,-2.473578 1.405599,-3.906738 1.405599,-1.44005 3.879178,-1.44005 2.466688,0 3.879177,1.44005 1.412489,1.43316 1.412489,3.906738 z m -3.507107,2.597602 q 0.385851,-0.468533 0.571886,-1.10243 0.186035,-0.640788 0.186035,-1.502062 0,-0.923286 -0.213596,-1.570964 -0.213596,-0.647677 -0.558105,-1.047309 -0.3514,-0.413411 -0.813043,-0.599446 -0.454752,-0.186035 -0.950846,-0.186035 -0.502984,0 -0.950847,0.179145 -0.440972,0.179145 -0.813042,0.592556 -0.34451,0.385851 -0.564996,1.06798 -0.213596,0.675238 -0.213596,1.570963 0,0.916396 0.206706,1.564073 0.213596,0.640788 0.558106,1.047309 0.344509,0.406522 0.806152,0.599447 0.461643,0.192925 0.971517,0.192925 0.509874,0 0.971517,-0.192925 0.461642,-0.199816 0.806152,-0.613227 z"
         style="stroke-width:0.26458332"
         id="path862" />
      <path
         d="m 68.969734,80.109909 h -2.632053 v -6.86952 l -1.901692,4.457953 h -1.825901 l -1.901692,-4.457953 v 6.86952 h -2.49425 V 69.850415 h 3.073026 l 2.308213,5.146973 2.301324,-5.146973 h 3.073025 z"
         style="stroke-width:0.26458332"
         id="path864" />
    </g>
    <text
       xml:space="preserve"
       style="font-style:normal;font-variant:normal;font-weight:bold;font-stretch:normal;font-size:14.11111069px;line-height:1.25;font-family:sans-serif;-inkscape-font-specification:'sans-serif Bold';letter-spacing:0px;word-spacing:0px;fill:#000000;fill-opacity:1;stroke:none;stroke-width:0.26458332"
       x="33.167641"
       y="129.50365"
       id="text842"><tspan
         sodipodi:role="line"
         id="tspan840"
         x="33.167641"
         y="129.50365"
         style="stroke-width:0.26458332">SHOP</tspan></text>
    <g
       aria-label="PALACE"
       style="font-style:normal;font-variant:normal;font-weight:bold;font-stretch:normal;font-size:14.11111069px;line-height:1.25;font-family:sans-serif;-inkscape-font-specification:'sans-serif Bold';letter-spacing:0px;word-spacing:0px;fill:#000000;fill-opacity:1;stroke:none;stroke-width:0.26458332"
       id="text850">
      <path
         d="m 42.646096,173.48173 q 0,0.68902 -0.241156,1.35048 -0.241157,0.65457 -0.689019,1.10243 -0.613227,0.60634 -1.371148,0.9164 -0.751031,0.31006 -1.874132,0.31006 h -1.646756 v 3.34174 h -2.645833 v -10.2595 h 4.3546 q 0.978407,0 1.646756,0.17226 0.675239,0.16536 1.192003,0.50298 0.620117,0.40652 0.943956,1.04042 0.330729,0.6339 0.330729,1.52273 z m -2.735405,0.062 q 0,-0.43409 -0.234267,-0.74415 -0.234266,-0.31694 -0.544325,-0.44097 -0.413411,-0.16536 -0.806152,-0.17914 -0.392741,-0.0207 -1.047309,-0.0207 h -0.454753 v 3.07302 h 0.757921 q 0.675239,0 1.109321,-0.0827 0.440972,-0.0827 0.73725,-0.33073 0.254937,-0.22049 0.36518,-0.52365 0.117134,-0.31006 0.117134,-0.75103 z"
         style="stroke-width:0.26458332"
         id="path972" />
      <path
         d="m 53.99424,180.50284 h -2.735405 l -0.70969,-2.07395 H 46.74576 l -0.70969,2.07395 h -2.666504 l 3.789605,-10.2595 h 3.045465 z m -4.085883,-3.95497 -1.260905,-3.67936 -1.260905,3.67936 z"
         style="stroke-width:0.26458332"
         id="path974" />
      <path
         d="m 62.882587,180.50284 h -7.400065 v -10.2595 h 2.645833 v 8.27512 h 4.754232 z"
         style="stroke-width:0.26458332"
         id="path976" />
      <path
         d="m 73.948234,180.50284 h -2.735405 l -0.70969,-2.07395 h -3.803385 l -0.70969,2.07395 H 63.32356 l 3.789605,-10.2595 h 3.045464 z m -4.085883,-3.95497 -1.260905,-3.67936 -1.260905,3.67936 z"
         style="stroke-width:0.26458332"
         id="path978" />
      <rect
         style="opacity:1;fill:#d40000;fill-opacity:1;stroke:none;stroke-width:0.7151463;stroke-linejoin:miter;stroke-miterlimit:4;stroke-dasharray:none;stroke-dashoffset:0;stroke-opacity:0.9067524;paint-order:markers fill stroke"
         id="rect869-372"
         width="8.8437042"
         height="1.9843729"
         x="81.592751"
         y="170.24335" />
      <rect
         style="opacity:1;fill:#d40000;fill-opacity:1;stroke:none;stroke-width:0.88486153;stroke-linejoin:miter;stroke-miterlimit:4;stroke-dasharray:none;stroke-dashoffset:0;stroke-opacity:0.9067524;paint-order:markers fill stroke"
         id="rect869-8-1"
         width="13.539263"
         height="1.9843729"
         x="76.897194"
         y="173.94753" />
      <rect
         style="opacity:1;fill:#d40000;fill-opacity:1;stroke:none;stroke-width:0.42238924;stroke-linejoin:miter;stroke-miterlimit:4;stroke-dasharray:none;stroke-dashoffset:0;stroke-opacity:0.9067524;paint-order:markers fill stroke"
         id="rect886-6"
         width="8.8437099"
         height="1.984375"
         x="81.592751"
         y="178.50856" />
    </g>
    <g
       aria-label="SHOES"
       style="font-style:normal;font-variant:normal;font-weight:bold;font-stretch:normal;font-size:14.11111069px;line-height:1.25;font-family:sans-serif;-inkscape-font-specification:'sans-serif Bold';letter-spacing:0px;word-spacing:0px;fill:#000000;fill-opacity:1;stroke:none;stroke-width:0.26458332"
       id="text858">
      <path
         d="m 42.920326,202.47714 q 0,1.51584 -1.288465,2.46669 -1.281576,0.94396 -3.486437,0.94396 -1.274685,0 -2.225531,-0.22049 -0.943957,-0.22738 -1.770779,-0.57189 v -2.45979 h 0.289388 q 0.819932,0.65456 1.83279,1.00596 1.019749,0.3514 1.956814,0.3514 0.241157,0 0.633898,-0.0413 0.392741,-0.0413 0.640788,-0.1378 0.303168,-0.12402 0.496093,-0.31006 0.199816,-0.18603 0.199816,-0.55121 0,-0.33762 -0.289388,-0.57878 -0.282498,-0.24805 -0.833713,-0.37896 -0.578776,-0.1378 -1.226454,-0.25494 -0.640788,-0.12402 -1.205783,-0.31006 -1.295356,-0.4203 -1.867242,-1.13688 -0.564996,-0.72347 -0.564996,-1.79145 0,-1.43316 1.281576,-2.33577 1.288465,-0.90951 3.307291,-0.90951 1.012858,0 1.998156,0.19982 0.992187,0.19292 1.715657,0.4892 v 2.36334 h -0.282498 q -0.620117,-0.4961 -1.522732,-0.82683 -0.895725,-0.33762 -1.832791,-0.33762 -0.330729,0 -0.661458,0.0482 -0.323839,0.0413 -0.627007,0.16536 -0.268718,0.10335 -0.461643,0.31695 -0.192925,0.20671 -0.192925,0.47542 0,0.40652 0.310058,0.62701 0.310059,0.2136 1.171333,0.39274 0.564995,0.11713 1.08176,0.22738 0.523654,0.11024 1.123101,0.30317 1.178222,0.38585 1.736328,1.05419 0.564995,0.66146 0.564995,1.72255 z"
         style="stroke-width:0.26458332"
         id="path1006" />
      <path
         d="m 53.937741,205.70175 h -2.645833 v -4.51996 H 47.38517 v 4.51996 h -2.645833 v -10.25949 h 2.645833 v 3.75515 h 3.906738 v -3.75515 h 2.645833 z"
         style="stroke-width:0.26458332"
         id="path1008" />
      <path
         d="m 81.648706,202.47714 q 0,1.51584 -1.288465,2.46669 -1.281576,0.94396 -3.486437,0.94396 -1.274685,0 -2.225532,-0.22049 -0.943956,-0.22738 -1.770779,-0.57189 v -2.45979 h 0.289388 q 0.819933,0.65456 1.832791,1.00596 1.019748,0.3514 1.956814,0.3514 0.241157,0 0.633898,-0.0413 0.392741,-0.0413 0.640788,-0.1378 0.303168,-0.12402 0.496093,-0.31006 0.199816,-0.18603 0.199816,-0.55121 0,-0.33762 -0.289388,-0.57878 -0.282498,-0.24805 -0.833713,-0.37896 -0.578776,-0.1378 -1.226454,-0.25494 -0.640788,-0.12402 -1.205784,-0.31006 -1.295355,-0.4203 -1.867241,-1.13688 -0.564996,-0.72347 -0.564996,-1.79145 0,-1.43316 1.281576,-2.33577 1.288465,-0.90951 3.307291,-0.90951 1.012858,0 1.998155,0.19982 0.992188,0.19292 1.715658,0.4892 v 2.36334 h -0.282498 q -0.620117,-0.4961 -1.522732,-0.82683 -0.895725,-0.33762 -1.832791,-0.33762 -0.330729,0 -0.661458,0.0482 -0.323839,0.0413 -0.627007,0.16536 -0.268718,0.10335 -0.461643,0.31695 -0.192926,0.20671 -0.192926,0.47542 0,0.40652 0.310059,0.62701 0.310059,0.2136 1.171332,0.39274 0.564996,0.11713 1.08176,0.22738 0.523655,0.11024 1.123102,0.30317 1.178222,0.38585 1.736328,1.05419 0.564995,0.66146 0.564995,1.72255 z"
         style="stroke-width:0.26458332"
         id="path1014"
         inkscape:connector-curvature="0" />
      <rect
         style="opacity:1;fill:#d40000;fill-opacity:1;stroke:none;stroke-width:0.69347984;stroke-linejoin:miter;stroke-miterlimit:4;stroke-dasharray:none;stroke-dashoffset:0;stroke-opacity:0.9067524;paint-order:markers fill stroke"
         id="rect869-6-7"
         width="8.3159552"
         height="1.9843729"
         x="63.023922"
         y="195.49324" />
      <rect
         style="opacity:1;fill:#d40000;fill-opacity:1;stroke:none;stroke-width:0.62366712;stroke-linejoin:miter;stroke-miterlimit:4;stroke-dasharray:none;stroke-dashoffset:0;stroke-opacity:0.9067524;paint-order:markers fill stroke"
         id="rect869-8-8-2"
         width="6.7258964"
         height="1.9843729"
         x="64.613983"
         y="199.1974" />
      <rect
         style="opacity:1;fill:#d40000;fill-opacity:1;stroke:none;stroke-width:0.41572919;stroke-linejoin:miter;stroke-miterlimit:4;stroke-dasharray:none;stroke-dashoffset:0;stroke-opacity:0.9067524;paint-order:markers fill stroke"
         id="rect886-1-5"
         width="8.5670214"
         height="1.984375"
         x="62.772858"
         y="203.75844" />
    </g>
    <rect
       style="opacity:1;fill:#d40000;fill-opacity:1;stroke:none;stroke-width:0.65509045;stroke-linejoin:miter;stroke-miterlimit:4;stroke-dasharray:none;stroke-dashoffset:0;stroke-opacity:0.9067524;paint-order:markers fill stroke"
       id="rect869"
       width="7.4207363"
       height="1.9843729"
       x="68.93528"
       y="69.850418" />
    <rect
       style="opacity:1;fill:#d40000;fill-opacity:1;stroke:none;stroke-width:0.65509045;stroke-linejoin:miter;stroke-miterlimit:4;stroke-dasharray:none;stroke-dashoffset:0;stroke-opacity:0.9067524;paint-order:markers fill stroke"
       id="rect869-8"
       width="7.4207363"
       height="1.9843729"
       x="68.93528"
       y="73.554588" />
    <rect
       style="opacity:1;fill:#d40000;fill-opacity:1;stroke:none;stroke-width:0.38691825;stroke-linejoin:miter;stroke-miterlimit:4;stroke-dasharray:none;stroke-dashoffset:0;stroke-opacity:0.9067524;paint-order:markers fill stroke"
       id="rect886"
       width="7.4207406"
       height="1.984375"
       x="68.93528"
       y="78.115623" />
    <rect
       style="opacity:1;fill:#d40000;fill-opacity:1;stroke:none;stroke-width:0.65509045;stroke-linejoin:miter;stroke-miterlimit:4;stroke-dasharray:none;stroke-dashoffset:0;stroke-opacity:0.9067524;paint-order:markers fill stroke"
       id="rect869-6"
       width="7.4207363"
       height="1.9843729"
       x="93.56707"
       y="145.3297" />
    <rect
       style="opacity:1;fill:#d40000;fill-opacity:1;stroke:none;stroke-width:0.65509045;stroke-linejoin:miter;stroke-miterlimit:4;stroke-dasharray:none;stroke-dashoffset:0;stroke-opacity:0.9067524;paint-order:markers fill stroke"
       id="rect869-8-8"
       width="7.4207363"
       height="1.9843729"
       x="93.56707"
       y="149.03386" />
    <rect
       style="opacity:1;fill:#d40000;fill-opacity:1;stroke:none;stroke-width:0.38691828;stroke-linejoin:miter;stroke-miterlimit:4;stroke-dasharray:none;stroke-dashoffset:0;stroke-opacity:0.9067524;paint-order:markers fill stroke"
       id="rect886-1"
       width="7.4207406"
       height="1.984375"
       x="93.56707"
       y="153.59489" />
    <rect
       style="opacity:1;fill:#d40000;fill-opacity:1;stroke:none;stroke-width:0.72831941;stroke-linejoin:miter;stroke-miterlimit:4;stroke-dasharray:none;stroke-dashoffset:0;stroke-opacity:0.9067524;paint-order:markers fill stroke"
       id="rect869-3"
       width="9.1725111"
       height="1.9843729"
       x="72.132004"
       y="145.4948" />
    <rect
       style="opacity:1;fill:#d40000;fill-opacity:1;stroke:none;stroke-width:0.69747722;stroke-linejoin:miter;stroke-miterlimit:4;stroke-dasharray:none;stroke-dashoffset:0;stroke-opacity:0.9067524;paint-order:markers fill stroke"
       id="rect869-8-0"
       width="8.4121027"
       height="1.9843729"
       x="72.89241"
       y="149.19896" />
    <rect
       style="opacity:1;fill:#d40000;fill-opacity:1;stroke:none;stroke-width:0.41195333;stroke-linejoin:miter;stroke-miterlimit:4;stroke-dasharray:none;stroke-dashoffset:0;stroke-opacity:0.9067524;paint-order:markers fill stroke"
       id="rect886-2"
       width="8.4121075"
       height="1.984375"
       x="73.111107"
       y="153.59489" />
    <g
       aria-label="SUPREME"
       style="font-style:normal;font-variant:normal;font-weight:bold;font-stretch:normal;font-size:14.11111069px;line-height:1.25;font-family:sans-serif;-inkscape-font-specification:'sans-serif Bold';letter-spacing:0px;word-spacing:0px;fill:#000000;fill-opacity:1;stroke:none;stroke-width:0.26458332"
       id="text846">
      <path
         d="m 42.727112,152.35466 q 0,1.51584 -1.288466,2.46669 -1.281575,0.94395 -3.486436,0.94395 -1.274686,0 -2.225532,-0.22048 -0.943956,-0.22738 -1.770779,-0.57189 v -2.4598 h 0.289388 q 0.819933,0.65457 1.832791,1.00597 1.019748,0.3514 1.956814,0.3514 0.241157,0 0.633898,-0.0413 0.39274,-0.0413 0.640787,-0.1378 0.303169,-0.12403 0.496094,-0.31006 0.199816,-0.18604 0.199816,-0.55122 0,-0.33762 -0.289388,-0.57877 -0.282498,-0.24805 -0.833713,-0.37896 -0.578777,-0.13781 -1.226454,-0.25494 -0.640788,-0.12402 -1.205784,-0.31006 -1.295356,-0.4203 -1.867242,-1.13688 -0.564995,-0.72347 -0.564995,-1.79145 0,-1.43316 1.281575,-2.33577 1.288466,-0.90951 3.307292,-0.90951 1.012858,0 1.998155,0.19982 0.992188,0.19292 1.715658,0.4892 v 2.36333 h -0.282498 q -0.620117,-0.49609 -1.522732,-0.82682 -0.895725,-0.33762 -1.832791,-0.33762 -0.330729,0 -0.661458,0.0482 -0.323839,0.0413 -0.627008,0.16537 -0.268717,0.10335 -0.461642,0.31695 -0.192926,0.2067 -0.192926,0.47542 0,0.40652 0.310059,0.62701 0.310058,0.21359 1.171332,0.39274 0.564996,0.11713 1.08176,0.22737 0.523655,0.11025 1.123101,0.30317 1.178223,0.38585 1.736328,1.0542 0.564996,0.66146 0.564996,1.72255 z"
         style="stroke-width:0.26458332"
         id="path899" />
      <path
         d="m 53.530931,151.86546 q 0,1.90169 -1.157552,2.91455 -1.157552,1.01286 -3.410644,1.01286 -2.253093,0 -3.410645,-1.01286 -1.150662,-1.01286 -1.150662,-2.90766 v -6.55257 h 2.659614 v 6.40098 q 0,1.06798 0.447862,1.59164 0.447863,0.52365 1.453831,0.52365 0.992187,0 1.44694,-0.50298 0.461643,-0.50299 0.461643,-1.61231 v -6.40098 h 2.659613 z"
         style="stroke-width:0.26458332"
         id="path901" />
      <path
         d="m 64.479444,148.55817 q 0,0.68901 -0.241157,1.35047 -0.241157,0.65457 -0.689019,1.10243 -0.613227,0.60634 -1.371148,0.9164 -0.751031,0.31006 -1.874132,0.31006 h -1.646756 v 3.34174 H 56.011399 V 145.31978 H 60.366 q 0.978407,0 1.646755,0.17225 0.675239,0.16536 1.192003,0.50298 0.620117,0.40653 0.943956,1.04042 0.33073,0.6339 0.33073,1.52274 z m -2.735406,0.062 q 0,-0.43409 -0.234267,-0.74414 -0.234266,-0.31695 -0.544325,-0.44098 -0.413411,-0.16536 -0.806152,-0.17914 -0.392741,-0.0207 -1.047309,-0.0207 h -0.454753 v 3.07302 h 0.757921 q 0.675239,0 1.109321,-0.0827 0.440972,-0.0827 0.73725,-0.33073 0.254938,-0.22048 0.365181,-0.52365 0.117133,-0.31006 0.117133,-0.75103 z"
         style="stroke-width:0.26458332"
         id="path903" />
      <path
         d="m 72.099996,148.4617 q 0,-0.38585 -0.158475,-0.66146 -0.158474,-0.2756 -0.544325,-0.43408 -0.268717,-0.11024 -0.627007,-0.13091 -0.35829,-0.0276 -0.833713,-0.0276 h -0.957737 v 2.76296 h 0.813043 q 0.633897,0 1.061089,-0.062 0.427192,-0.062 0.71658,-0.2825 0.275607,-0.21359 0.399631,-0.46853 0.130914,-0.26183 0.130914,-0.69591 z m 4.127224,7.11757 h -3.2315 l -2.797417,-3.76204 h -1.219564 v 3.76204 h -2.632053 v -10.25949 h 4.437283 q 0.909505,0 1.564073,0.10335 0.654568,0.10335 1.226454,0.44786 0.578776,0.34451 0.916396,0.89573 0.344509,0.54432 0.344509,1.37114 0,1.13688 -0.530544,1.85346 -0.523655,0.71658 -1.502062,1.19201 z"
         style="stroke-width:0.26458332"
         id="path905" />
      <path
         d="m 93.567071,155.57927 h -2.632052 v -6.86952 l -1.901693,4.45795 h -1.825901 l -1.901692,-4.45795 v 6.86952 h -2.494249 v -10.25949 h 3.073025 l 2.308214,5.14697 2.301323,-5.14697 h 3.073025 z"
         style="stroke-width:0.26458332"
         id="path909"
         inkscape:connector-curvature="0" />
    </g>
    <rect
       style="opacity:1;fill:#d40000;fill-opacity:1;stroke:none;stroke-width:0.71907419;stroke-linejoin:miter;stroke-miterlimit:4;stroke-dasharray:none;stroke-dashoffset:0;stroke-opacity:0.9067524;paint-order:markers fill stroke"
       id="rect869-37"
       width="8.9411182"
       height="1.9843729"
       x="50.696552"
       y="94.12001" />
    <rect
       style="opacity:1;fill:#d40000;fill-opacity:1;stroke:none;stroke-width:0.65509045;stroke-linejoin:miter;stroke-miterlimit:4;stroke-dasharray:none;stroke-dashoffset:0;stroke-opacity:0.9067524;paint-order:markers fill stroke"
       id="rect869-8-9"
       width="7.4207363"
       height="1.9843729"
       x="52.216934"
       y="97.824181" />
    <rect
       style="opacity:1;fill:#d40000;fill-opacity:1;stroke:none;stroke-width:0.41572094;stroke-linejoin:miter;stroke-miterlimit:4;stroke-dasharray:none;stroke-dashoffset:0;stroke-opacity:0.9067524;paint-order:markers fill stroke"
       id="rect886-4"
       width="8.5666809"
       height="1.984375"
       x="51.070995"
       y="102.38522" />
    <g
       aria-label="UBER UNS"
       style="font-style:normal;font-variant:normal;font-weight:bold;font-stretch:normal;font-size:14.11111069px;line-height:1.25;font-family:sans-serif;-inkscape-font-specification:'sans-serif Bold';letter-spacing:0px;word-spacing:0px;fill:#000000;fill-opacity:1;stroke:none;stroke-width:0.26458332"
       id="text838">
      <path
         d="m 43.386459,100.65578 q 0,1.90169 -1.157552,2.91455 -1.157552,1.01286 -3.410644,1.01286 -2.253093,0 -3.410645,-1.01286 -1.150662,-1.01286 -1.150662,-2.90766 v -6.552573 h 2.659614 v 6.400983 q 0,1.06798 0.447862,1.59164 0.447863,0.52365 1.453831,0.52365 0.992187,0 1.44694,-0.50298 0.461642,-0.50299 0.461642,-1.61231 v -6.400983 h 2.659614 z"
         style="stroke-width:0.26458332"
         id="path940" />
      <path
         d="m 54.645031,101.22766 q 0,0.74414 -0.303168,1.32981 -0.296279,0.58567 -0.819933,0.97152 -0.606337,0.45475 -1.336697,0.64768 -0.72347,0.19292 -1.839681,0.19292 H 45.866928 V 94.110097 h 3.98253 q 1.240235,0 1.81212,0.08268 0.578776,0.08268 1.143772,0.36518 0.585666,0.296278 0.868164,0.799262 0.289388,0.496094 0.289388,1.136882 0,0.74414 -0.392741,1.316026 -0.392741,0.564996 -1.10932,0.881945 v 0.05512 q 1.005967,0.199816 1.591634,0.826823 0.592556,0.627012 0.592556,1.653642 z m -3.389974,-4.216793 q 0,-0.254937 -0.130913,-0.509874 -0.124024,-0.254937 -0.447863,-0.378961 -0.289388,-0.110243 -0.72347,-0.117133 -0.427192,-0.01378 -1.205783,-0.01378 h -0.248047 v 2.17041 h 0.413411 q 0.627008,0 1.06798,-0.02067 0.440972,-0.02067 0.695909,-0.137804 0.35829,-0.158474 0.468533,-0.406521 0.110243,-0.254937 0.110243,-0.585666 z m 0.647678,4.175453 q 0,-0.4892 -0.192925,-0.75103 -0.186035,-0.26872 -0.640788,-0.39963 -0.310059,-0.08957 -0.854384,-0.09646 -0.544325,-0.0069 -1.136881,-0.0069 h -0.578776 v 2.556262 h 0.192925 q 1.116211,0 1.598524,-0.007 0.482314,-0.007 0.888835,-0.17915 0.413411,-0.17225 0.564996,-0.45475 0.158474,-0.28939 0.158474,-0.66146 z"
         style="stroke-width:0.26458332"
         id="path942" />
      <path
         d="m 67.781865,97.252024 q 0,-0.385851 -0.158475,-0.661459 -0.158474,-0.275607 -0.544325,-0.434082 -0.268717,-0.110243 -0.627007,-0.130913 -0.35829,-0.02756 -0.833713,-0.02756 h -0.957737 v 2.762966 h 0.813043 q 0.633897,0 1.061089,-0.06201 0.427192,-0.06201 0.71658,-0.282498 0.275607,-0.213596 0.399631,-0.468533 0.130914,-0.261827 0.130914,-0.695909 z m 4.127224,7.117566 h -3.2315 l -2.797417,-3.76204 h -1.219564 v 3.76204 H 62.028555 V 94.110097 h 4.437283 q 0.909505,0 1.564073,0.103353 0.654568,0.103352 1.226454,0.447862 0.578776,0.34451 0.916396,0.895725 0.344509,0.544325 0.344509,1.371148 0,1.136881 -0.530544,1.853461 -0.523655,0.71658 -1.502062,1.192003 z"
         style="stroke-width:0.26458332"
         id="path946"
         inkscape:connector-curvature="0" />
      <path
         d="m 86.888364,100.65578 q 0,1.90169 -1.157552,2.91455 -1.157552,1.01286 -3.410644,1.01286 -2.253093,0 -3.410645,-1.01286 -1.150662,-1.01286 -1.150662,-2.90766 v -6.552573 h 2.659614 v 6.400983 q 0,1.06798 0.447862,1.59164 0.447863,0.52365 1.453831,0.52365 0.992187,0 1.44694,-0.50298 0.461642,-0.50299 0.461642,-1.61231 v -6.400983 h 2.659614 z"
         style="stroke-width:0.26458332"
         id="path948"
         inkscape:connector-curvature="0" />
      <path
         d="m 98.698139,104.36959 h -2.549355 l -4.354603,-7.041774 v 7.041774 H 89.368834 V 94.110097 h 3.162597 l 3.741373,5.877332 v -5.877332 h 2.425335 z"
         style="stroke-width:0.26458332"
         id="path950"
         inkscape:connector-curvature="0" />
      <path
         d="m 109.54329,101.14498 q 0,1.51584 -1.28847,2.46669 -1.28158,0.94396 -3.48644,0.94396 -1.27468,0 -2.22553,-0.22049 -0.94395,-0.22738 -1.77078,-0.57189 v -2.45979 h 0.28939 q 0.81993,0.65456 1.83279,1.00596 1.01975,0.3514 1.95682,0.3514 0.24115,0 0.63389,-0.0413 0.39274,-0.0413 0.64079,-0.1378 0.30317,-0.12402 0.49609,-0.31006 0.19982,-0.18604 0.19982,-0.55122 0,-0.33761 -0.28939,-0.57877 -0.2825,-0.24805 -0.83371,-0.37896 -0.57878,-0.13781 -1.22645,-0.25494 -0.64079,-0.12402 -1.20579,-0.31006 -1.29535,-0.420299 -1.86724,-1.136879 -0.565,-0.72347 -0.565,-1.79145 0,-1.433159 1.28158,-2.335774 1.28847,-0.909505 3.30729,-0.909505 1.01286,0 1.99816,0.199815 0.99218,0.192925 1.71565,0.489204 v 2.363335 h -0.28249 q -0.62012,-0.496094 -1.52274,-0.826823 -0.89572,-0.337619 -1.83279,-0.337619 -0.33073,0 -0.66145,0.04823 -0.32384,0.04134 -0.62701,0.165365 -0.26872,0.103353 -0.46164,0.316949 -0.19293,0.206705 -0.19293,0.475423 0,0.406521 0.31006,0.627007 0.31006,0.213596 1.17133,0.392741 0.565,0.117133 1.08176,0.227376 0.52366,0.110243 1.1231,0.303169 1.17822,0.38585 1.73633,1.054199 0.565,0.661457 0.565,1.722547 z"
         style="stroke-width:0.26458332"
         id="path952"
         inkscape:connector-curvature="0" />
    </g>
    <path
       d="m 80.073611,180.70265 q -1.143771,0 -2.115288,-0.33762 -0.964627,-0.33762 -1.660536,-1.00596 -0.69591,-0.66835 -1.08176,-1.66743 -0.378961,-0.99908 -0.378961,-2.30821 0,-1.21957 0.36518,-2.21175 0.36518,-0.99219 1.06109,-1.70188 0.668348,-0.68213 1.653645,-1.0542 0.992188,-0.37207 2.16352,-0.37207 0.647678,0 1.164443,0.0758 0.523654,0.0689 0.964626,0.18604 0.461643,0.13091 0.833713,0.29627 0.378961,0.15848 0.661459,0.29628 v 2.48736 h -0.303169 q -0.192925,-0.16536 -0.489203,-0.39274 -0.289388,-0.22738 -0.661459,-0.44786 -0.37896,-0.22049 -0.819932,-0.37207 -0.440972,-0.15159 -0.943956,-0.15159 -0.558106,0 -1.06109,0.17915 -0.502984,0.17225 -0.930175,0.57877 -0.406522,0.39275 -0.661459,1.04042 -0.248047,0.64768 -0.248047,1.57097 0,0.96462 0.268718,1.6123 0.275607,0.64768 0.689019,1.01975 0.420301,0.37896 0.937066,0.54432 0.516764,0.15848 1.019748,0.15848 0.482313,0 0.950846,-0.1447 0.475424,-0.14469 0.875055,-0.39274 0.337619,-0.19981 0.627007,-0.42719 0.289388,-0.22737 0.475423,-0.39274 h 0.275608 v 2.45291 q -0.385851,0.17225 -0.737251,0.32384 -0.351399,0.15158 -0.73725,0.26183 -0.502984,0.14469 -0.943956,0.22048 -0.440972,0.0758 -1.212674,0.0758 z"
       style="font-style:normal;font-variant:normal;font-weight:bold;font-stretch:normal;font-size:14.11111069px;line-height:1.25;font-family:sans-serif;-inkscape-font-specification:'sans-serif Bold';letter-spacing:0px;word-spacing:0px;fill:#000000;fill-opacity:1;stroke:none;stroke-width:0.26458332"
       id="path980" />
    <path
       d="m 66.539901,200.57545 q 0,2.45291 -1.405599,3.89985 -1.405598,1.44005 -3.886067,1.44005 -2.473579,0 -3.879178,-1.44005 -1.405598,-1.44694 -1.405598,-3.89985 0,-2.47358 1.405598,-3.90674 1.405599,-1.44005 3.879178,-1.44005 2.466688,0 3.879177,1.44005 1.412489,1.43316 1.412489,3.90674 z m -3.507107,2.5976 q 0.385851,-0.46853 0.571886,-1.10243 0.186035,-0.64079 0.186035,-1.50206 0,-0.92329 -0.213596,-1.57096 -0.213596,-0.64768 -0.558105,-1.04731 -0.3514,-0.41341 -0.813043,-0.59945 -0.454752,-0.18603 -0.950846,-0.18603 -0.502984,0 -0.950846,0.17914 -0.440972,0.17915 -0.813043,0.59256 -0.344509,0.38585 -0.564995,1.06798 -0.213596,0.67523 -0.213596,1.57096 0,0.9164 0.206705,1.56407 0.213596,0.64079 0.558106,1.04731 0.344509,0.40652 0.806152,0.59945 0.461643,0.19292 0.971517,0.19292 0.509874,0 0.971517,-0.19292 0.461643,-0.19982 0.806152,-0.61323 z"
       style="font-style:normal;font-variant:normal;font-weight:bold;font-stretch:normal;font-size:14.11111069px;line-height:1.25;font-family:sans-serif;-inkscape-font-specification:'sans-serif Bold';letter-spacing:0px;word-spacing:0px;fill:#000000;fill-opacity:1;stroke:none;stroke-width:0.26458332"
       id="path1010" />
    <rect
       style="opacity:1;fill:#d40000;fill-opacity:1;stroke:none;stroke-width:0.78037018;stroke-linejoin:miter;stroke-miterlimit:4;stroke-dasharray:none;stroke-dashoffset:0;stroke-opacity:0.9067524;paint-order:markers fill stroke"
       id="rect869-6-2"
       width="10.530423"
       height="1.9843729"
       x="57.942635"
       y="222.34294" />
    <rect
       style="opacity:1;fill:#d40000;fill-opacity:1;stroke:none;stroke-width:0.76849741;stroke-linejoin:miter;stroke-miterlimit:4;stroke-dasharray:none;stroke-dashoffset:0;stroke-opacity:0.9067524;paint-order:markers fill stroke"
       id="rect869-8-8-6"
       width="10.212434"
       height="1.9843729"
       x="58.260624"
       y="226.0471" />
    <rect
       style="opacity:1;fill:#d40000;fill-opacity:1;stroke:none;stroke-width:0.36196384;stroke-linejoin:miter;stroke-miterlimit:4;stroke-dasharray:none;stroke-dashoffset:0;stroke-opacity:0.9067524;paint-order:markers fill stroke"
       id="rect886-1-8"
       width="6.4944019"
       height="1.984375"
       x="61.978661"
       y="230.60814" />
    <g
       aria-label="SALE"
       style="font-style:normal;font-variant:normal;font-weight:bold;font-stretch:normal;font-size:14.11111069px;line-height:1.25;font-family:sans-serif;-inkscape-font-specification:'sans-serif Bold';letter-spacing:0px;word-spacing:0px;fill:#000000;fill-opacity:1;stroke:none;stroke-width:0.26458332"
       id="text854">
      <path
         d="m 43.427178,229.3679 q 0,1.51585 -1.288466,2.46669 -1.281576,0.94396 -3.486437,0.94396 -1.274685,0 -2.225531,-0.22049 -0.943956,-0.22737 -1.770779,-0.57188 v -2.4598 h 0.289388 q 0.819932,0.65457 1.83279,1.00597 1.019749,0.3514 1.956815,0.3514 0.241156,0 0.633897,-0.0413 0.392741,-0.0413 0.640788,-0.13781 0.303168,-0.12402 0.496094,-0.31006 0.199815,-0.18603 0.199815,-0.55121 0,-0.33762 -0.289388,-0.57878 -0.282498,-0.24804 -0.833713,-0.37896 -0.578776,-0.1378 -1.226454,-0.25494 -0.640788,-0.12402 -1.205783,-0.31005 -1.295356,-0.42031 -1.867242,-1.13689 -0.564996,-0.72347 -0.564996,-1.79145 0,-1.43315 1.281576,-2.33577 1.288466,-0.90951 3.307291,-0.90951 1.012859,0 1.998156,0.19982 0.992187,0.19293 1.715657,0.4892 v 2.36334 h -0.282498 q -0.620117,-0.49609 -1.522732,-0.82682 -0.895724,-0.33762 -1.83279,-0.33762 -0.33073,0 -0.661459,0.0482 -0.323839,0.0413 -0.627007,0.16536 -0.268718,0.10336 -0.461643,0.31695 -0.192925,0.20671 -0.192925,0.47542 0,0.40653 0.310058,0.62701 0.310059,0.2136 1.171333,0.39274 0.564995,0.11714 1.08176,0.22738 0.523654,0.11024 1.123101,0.30317 1.178222,0.38585 1.736328,1.0542 0.564996,0.66146 0.564996,1.72254 z"
         style="stroke-width:0.26458332"
         id="path1039" />
      <path
         d="m 54.727091,232.59251 h -2.735406 l -0.70969,-2.07394 H 47.47861 l -0.70969,2.07394 h -2.666504 l 3.789605,-10.25949 h 3.045465 z m -4.085884,-3.95497 -1.260905,-3.67936 -1.260904,3.67936 z"
         style="stroke-width:0.26458332"
         id="path1041" />
      <path
         d="m 63.615436,232.59251 h -7.400065 v -10.25949 h 2.645833 v 8.27512 h 4.754232 z"
         style="stroke-width:0.26458332"
         id="path1043" />
    </g>
  </g>
</svg>
